Genre:Comedy 
Language:English
IMDb:http://www.imdb.com/title/tt0496673/
Source:BluRay.x264-HD4U

General
Complete name :Calvin.Marshall.2009.BRRip.H264.Feel-Free
Format : MPEG-4
Format profile : Base Media
Codec ID : isom
File size : 1.50 GiB
Duration : 1h 33mn
Overall bit rate : 2 304 Kbps
Video #1
ID : 1
Format : AVC
Format/Info : Advanced Video Codec
Format profile : Baseline@L5.1
Format settings, CABAC : No
Format settings, ReFrames : 1 frame
Codec ID : avc1
Codec ID/Info : Advanced Video Coding
Duration : 1h 33mn
Bit rate mode : Variable
Bit rate : 2 076 Kbps
Width : 652 pixels
Height : 352 pixels
Display aspect ratio : 1.852
Frame rate mode : Constant
Frame rate : 23.976 fps
Resolution : 24 bits
Colorimetry : 4:2:0
Scan type : Progressive
Bits/(Pixel*Frame) : 0.377
Stream size : 1.35 GiB (90%)
Audio #2
ID : 2
Format : AAC
Format/Info : Advanced Audio Codec
Format version : Version 4
Format profile : LC
Format settings, SBR : No
Codec ID : 40
Duration : 1h 33mn
Bit rate mode : Variable
Bit rate : 224 Kbps
Channel(s) : 6 channels
Channel positions : Front: L C R, Rear: L R, LFE
Sampling rate : 48.0 KHz
Resolution : 16 bits
Stream size : 149 MiB (10%)

Plot
A college student is determined to become a Major League Baseball star, but finds his true calling instead








================================== 
http://thepiratebay.org/user/hiest
==================================








Screenshots:
 
http://www.starshare.ro/bitbucket/vlcsnap2010-09-22-14h50m11s89.jpg
 
http://www.starshare.ro/bitbucket/vlcsnap2010-09-22-14h49m42s30.jpg
 
http://www.starshare.ro/bitbucket/vlcsnap2010-09-22-14h49m46s82.jpg
 
http://www.starshare.ro/bitbucket/vlcsnap2010-09-22-14h50m04s11.jpg